<svg version="1.1" id="Layer_1" xmlns="http://www.w3.org/2000/svg" xmlns:xlink="http://www.w3.org/1999/xlink" x="0px" y="0px"
	 width="100%" viewBox="0 0 608 204" enable-background="new 0 0 608 204" xml:space="preserve">
<path fill="#FEFEFE" opacity="1.000000" stroke="none" 
	d="
M398.000000,205.000000 
	C265.374023,205.000000 133.248032,205.000000 1.061021,205.000000 
	C1.061021,137.061661 1.061021,69.123245 1.061021,1.092417 
	C203.542648,1.092417 406.085358,1.092417 608.814026,1.092417 
	C608.814026,68.999596 608.814026,136.999756 608.814026,205.000000 
	C538.789978,205.000000 468.644989,205.000000 398.000000,205.000000 
M562.838928,140.671753 
	C557.658630,142.407562 552.591736,144.724167 547.275208,145.761871 
	C535.083374,148.141495 522.996826,150.399918 514.041138,160.164703 
	C513.524902,160.727539 512.374329,160.708603 511.357025,161.008102 
	C514.120728,143.482040 512.414307,138.624603 507.309326,129.405502 
	C500.195282,116.558281 489.140320,106.062683 484.838776,90.467766 
	C483.950043,93.272346 483.629395,94.939125 482.919830,96.419495 
	C477.387726,107.961281 472.328552,119.479385 471.480255,132.678665 
	C470.954803,140.854935 471.669128,147.752563 478.422668,152.975113 
	C481.407837,155.283554 484.589569,157.337784 486.848419,158.922531 
	C482.421814,158.922531 477.458496,158.485687 472.609833,159.044128 
	C467.661835,159.613998 466.615265,162.665421 469.117706,166.818069 
	C469.905579,168.125473 470.476135,169.676758 470.713013,171.184494 
	C472.028778,179.558289 474.914978,181.985001 483.144806,180.307449 
	C488.462952,179.223419 493.676056,177.409424 498.757080,175.456467 
	C501.874176,174.258377 504.652893,172.179901 508.043732,170.232498 
	C507.729065,173.382660 507.353455,175.850433 507.258331,178.328995 
	C506.925232,187.008667 508.889160,189.193695 517.503296,190.055847 
	C518.477661,190.153381 519.417603,190.565735 520.391724,190.699341 
	C523.501038,191.125793 525.630066,189.846039 524.858215,186.614410 
	C523.991394,182.985138 522.294678,179.554077 521.183411,175.837906 
	C521.183411,175.837906 521.409424,175.640839 522.152466,175.685165 
	C529.059814,179.552277 535.687439,179.576599 541.363403,173.578033 
	C545.256775,169.463409 549.011841,165.131241 552.221069,160.477295 
	C556.514343,154.251389 560.219604,147.619965 564.585754,140.885666 
	C564.233643,140.744675 563.881531,140.603668 562.838928,140.671753 
M60.974258,46.523376 
	C60.974258,53.959976 60.974258,61.396580 60.974258,68.736481 
	C64.469872,68.736481 67.387848,68.736481 70.348969,68.736481 
	C70.348969,52.551399 70.348969,36.645576 70.348969,20.304125 
	C67.582916,20.304125 65.074043,20.607107 62.667137,20.240562 
	C57.773945,19.495386 55.829441,21.593390 54.509750,26.225702 
	C51.636162,36.312405 48.034538,46.191700 44.245583,57.617992 
	C40.049198,44.207680 36.315228,32.275097 32.628155,20.492382 
	C27.779465,20.492382 23.488180,20.492382 18.970280,20.492382 
	C18.970280,36.721146 18.970280,52.760941 18.970280,68.757095 
	C22.047956,68.757095 24.813595,68.757095 27.463430,68.757095 
	C27.463430,57.398148 27.463430,46.293941 27.463430,35.189735 
	C27.844522,35.093979 28.225613,34.998219 28.606705,34.902462 
	C32.152134,46.259903 35.697563,57.617344 39.207245,68.860275 
	C42.605099,68.860275 45.581867,68.860275 48.654896,68.860275 
	C52.515266,57.265438 56.340103,45.777328 60.164940,34.289223 
	C60.436066,34.375278 60.707191,34.461338 60.978317,34.547394 
	C60.978317,38.210167 60.978317,41.872936 60.974258,46.523376 
M431.331207,156.876968 
	C427.356232,156.620438 423.359344,156.531174 419.418427,156.014694 
	C418.077911,155.839005 416.878448,154.587112 415.614532,153.826996 
	C416.858704,153.140198 418.084259,151.894852 419.349945,151.852615 
	C432.606934,151.410126 437.125122,146.246078 435.103821,133.486633 
	C436.651184,132.970886 438.214417,132.449844 439.848724,131.905106 
	C439.848724,130.287659 439.848724,128.724899 439.848724,126.826828 
	C431.503326,126.826828 423.320068,126.052498 415.355988,127.042046 
	C407.198822,128.055588 403.314362,136.177841 406.530914,143.676758 
	C407.502106,145.940903 409.447845,147.787048 410.953003,149.832550 
	C406.057159,154.318420 405.980042,155.020447 409.745514,161.508087 
	C405.278564,163.168289 402.359344,165.953278 402.881653,171.154480 
	C403.403778,176.353745 407.084503,178.656281 411.503601,179.509323 
	C418.771881,180.912369 426.076508,180.885956 432.947021,177.477219 
	C437.579956,175.178619 439.822388,171.260910 439.738129,166.185226 
	C439.655914,161.231369 436.857452,158.245132 431.331207,156.876968 
M248.776642,153.426788 
	C252.832077,165.722733 261.871552,168.102585 272.806793,159.555328 
	C274.111755,165.581573 278.383331,164.055389 282.347168,163.773010 
	C282.347168,146.430588 282.347168,129.510345 282.347168,112.385300 
	C278.987000,112.385300 275.907013,112.385300 272.342133,112.385300 
	C272.342133,118.250862 272.342133,123.902313 272.342133,129.787537 
	C259.337128,122.790894 249.232498,127.665459 248.097763,141.189804 
	C247.781799,144.955795 248.386337,148.799026 248.776642,153.426788 
M413.114166,63.451530 
	C413.114166,60.955879 413.342316,58.434147 413.060760,55.970676 
	C412.637177,52.264404 414.080109,50.070499 417.738312,48.941513 
	C421.401398,54.800831 424.926270,60.614223 428.669464,66.283493 
	C429.449585,67.465004 430.956207,68.706535 432.269318,68.885849 
	C435.143646,69.278366 438.108582,69.007385 441.914337,69.007385 
	C435.962158,59.504864 430.461060,50.722462 424.945496,41.917019 
	C430.458771,34.854927 435.817657,27.990561 441.371674,20.876272 
	C434.254425,19.268904 429.091309,20.283091 425.228058,26.604773 
	C422.005981,31.877127 417.648071,36.455322 412.974365,42.378830 
	C412.974365,34.283886 412.974365,27.437620 412.974365,20.611595 
	C409.349426,20.611595 406.274628,20.611595 403.122375,20.611595 
	C403.122375,36.814579 403.122375,52.718987 403.122375,68.692261 
	C406.547821,68.692261 409.755096,68.692261 413.114166,68.692261 
	C413.114166,67.058479 413.114166,65.740181 413.114166,63.451530 
M499.020020,44.707478 
	C499.037659,48.687141 498.618896,52.727165 499.159332,56.634521 
	C500.485291,66.221634 507.788666,71.413086 516.405151,68.936531 
	C518.965759,68.200562 521.179932,66.258942 523.749512,64.754585 
	C524.919495,70.881760 529.226624,69.037964 533.206177,68.599670 
	C533.206177,51.831253 533.209534,35.372375 533.188110,18.913525 
	C533.187561,18.460470 532.920044,18.007765 532.738647,17.433590 
	C529.609741,17.433590 526.546204,17.433590 523.061584,17.433590 
	C523.061584,20.476021 523.061584,23.264324 523.061584,26.052628 
	C523.061584,28.922724 523.061584,31.792820 523.061584,35.039318 
	C511.089539,27.780962 502.923218,31.024530 499.020020,44.707478 
M202.883789,31.505877 
	C202.883789,43.917339 202.883789,56.328800 202.883789,68.768005 
	C206.505753,68.768005 209.582230,68.768005 212.984909,68.768005 
	C212.984909,65.909073 212.972046,63.282146 212.987839,60.655392 
	C213.012848,56.497063 212.552353,52.249813 213.264893,48.210892 
	C213.766479,45.367645 215.211136,41.880070 217.402359,40.314922 
	C221.919479,37.088425 226.703033,40.394611 226.891647,46.629501 
	C227.115768,54.037758 226.944412,61.457977 226.944412,68.717163 
	C230.709793,68.717163 233.793503,68.717163 236.983444,68.717163 
	C236.983444,59.967991 237.198471,51.498798 236.920151,43.045845 
	C236.665573,35.313908 231.076752,30.348875 223.349121,31.289707 
	C219.722504,31.731245 216.291016,33.775429 212.747345,35.102215 
	C212.747345,29.481686 212.747345,23.542105 212.747345,17.418148 
	C209.444855,17.418148 206.381729,17.418148 202.883789,17.418148 
	C202.883789,21.934725 202.883789,26.222244 202.883789,31.505877 
M368.390503,126.108688 
	C364.136993,127.415070 359.883514,128.721451 355.453888,130.081909 
	C354.895752,124.680199 350.424347,127.233994 346.785706,127.058533 
	C346.785706,139.386612 346.785706,151.493546 346.785706,163.660370 
	C350.177185,163.660370 353.380157,163.660370 356.939423,163.660370 
	C356.939423,157.010406 356.793671,150.701813 356.978668,144.402939 
	C357.180359,137.535141 359.856201,134.238953 364.727539,134.291565 
	C368.944489,134.337112 370.757111,137.334274 370.801453,144.507172 
	C370.841125,150.926407 370.809784,157.346069 370.809784,163.745499 
	C374.475769,163.745499 377.553375,163.745499 380.934113,163.745499 
	C380.934113,155.695923 381.020172,147.903763 380.911255,140.114334 
	C380.788269,131.318527 377.948486,128.026474 368.390503,126.108688 
M96.063927,49.588131 
	C96.329552,59.978024 100.423737,66.567299 108.018257,68.827690 
	C116.641907,71.394386 125.609306,68.332039 129.504456,61.490196 
	C133.911957,53.748386 132.660629,41.446007 126.645126,35.907566 
	C120.935944,30.651152 114.112007,29.989979 107.049431,32.399330 
	C99.410370,35.005341 96.746353,41.248005 96.063927,49.588131 
M205.721054,126.189575 
	C190.784515,128.584091 183.873199,144.506531 192.230652,157.269058 
	C198.908783,167.467133 216.282684,167.110275 222.401611,156.649338 
	C230.446304,142.896149 222.367264,127.310287 205.721054,126.189575 
M145.011337,163.834213 
	C149.138397,163.942230 153.291061,164.392517 157.387115,164.086136 
	C165.603806,163.471542 166.036453,162.717285 164.943985,153.970810 
	C157.405823,155.074997 148.698029,159.837341 143.379257,150.719849 
	C139.151382,143.472321 139.356873,135.007568 144.116989,127.940758 
	C149.430801,120.051949 156.972672,123.811050 163.984268,126.351418 
	C165.130905,123.389656 166.112686,120.853722 167.083115,118.347099 
	C151.494247,111.361954 138.071686,115.037033 132.664825,127.473412 
	C126.366936,141.959259 131.606232,158.219193 145.011337,163.834213 
M292.169495,36.387707 
	C286.145447,30.838909 278.169617,29.561743 270.985962,32.995594 
	C264.359192,36.163242 261.052185,43.978493 262.077484,54.048622 
	C262.822266,61.363647 267.317413,66.975243 274.311279,68.732475 
	C280.934540,70.396576 287.484467,70.062355 293.698853,66.926414 
	C293.698853,64.458542 293.698853,62.085743 293.698853,59.654350 
	C277.623688,63.569042 273.791138,62.400993 272.401245,52.950699 
	C280.189484,52.950699 287.930969,52.950699 295.944061,52.950699 
	C296.180786,47.063660 296.266266,41.651520 292.169495,36.387707 
M561.202026,49.184475 
	C564.552429,50.987846 568.038940,52.585125 571.201782,54.672596 
	C573.071594,55.906654 574.429688,57.916008 576.017822,59.576740 
	C573.727905,60.403954 571.401611,61.992577 569.156311,61.885307 
	C565.513794,61.711281 561.924377,60.425522 558.378296,59.623962 
	C558.378296,62.454369 558.378296,65.052879 558.378296,69.032272 
	C564.596924,69.032272 570.524353,69.440987 576.365723,68.907242 
	C581.336487,68.453064 585.049683,65.582840 585.968384,60.236584 
	C586.955078,54.494236 585.087463,50.952248 579.549011,48.094681 
	C576.602722,46.574493 573.426819,45.477955 570.566467,43.823715 
	C569.515930,43.216152 569.075867,41.552914 568.357300,40.371231 
	C569.509705,39.856274 570.716125,38.811657 571.804688,38.922703 
	C575.515381,39.301239 579.184448,40.086876 583.032898,40.745087 
	C583.895569,38.668224 584.767578,36.569004 585.629456,34.493961 
	C580.385864,31.429316 574.092407,30.490971 567.700195,31.748516 
	C558.269714,33.603783 555.388672,40.512241 561.202026,49.184475 
M160.086670,28.415400 
	C158.401840,30.306488 156.583557,32.098484 155.079605,34.123875 
	C154.094406,35.450653 153.564056,37.115166 152.721603,38.851891 
	C155.208817,39.371265 156.592056,39.660114 158.191589,39.994125 
	C158.191589,46.426975 157.936310,52.598873 158.258118,58.740532 
	C158.635544,65.943970 161.923569,69.320053 168.765625,69.548698 
	C172.139420,69.661438 175.545456,68.809586 178.763718,68.415421 
	C178.763718,65.360649 178.763718,63.113632 178.763718,60.763557 
	C176.809235,61.020969 175.178757,61.305321 173.536026,61.437298 
	C170.306061,61.696789 168.351227,60.224094 168.288132,56.923851 
	C168.180359,51.287979 168.258408,45.648560 168.258408,39.478912 
	C171.904129,39.478912 175.155838,39.478912 178.540192,39.478912 
	C178.540192,36.706383 178.540192,34.475151 178.540192,31.747967 
	C175.037750,31.747967 171.795197,31.747967 168.417831,31.747967 
	C168.269028,28.859093 168.145493,26.460405 168.025955,24.139608 
	C164.426758,23.782545 161.116119,23.143606 160.086670,28.415400 
M320.599548,55.485825 
	C320.599548,59.921757 320.599548,64.357689 320.599548,68.739754 
	C324.270508,68.739754 327.366302,68.739754 330.820068,68.739754 
	C330.820068,62.513741 330.740112,56.550560 330.841888,50.590485 
	C330.950409,44.234001 333.882904,41.269035 340.283295,40.820782 
	C341.406555,40.742111 342.540039,40.809628 343.872620,40.809628 
	C344.167725,37.599625 344.434875,34.693817 344.715607,31.639990 
	C338.042480,29.778250 333.979492,33.596607 329.864441,37.962410 
	C329.193390,35.621040 328.702576,33.908527 328.218445,32.219315 
	C325.589264,32.219315 323.214203,32.219315 320.599579,32.219315 
	C320.599579,39.862003 320.599579,47.176544 320.599548,55.485825 
M465.809052,31.888420 
	C465.072449,32.685833 463.704193,33.475548 463.694366,34.281822 
	C463.554810,45.733551 463.599243,57.187523 463.599243,68.656189 
	C467.191589,68.656189 470.397156,68.656189 473.501160,68.656189 
	C473.501160,56.235901 473.501160,44.174553 473.501160,31.886417 
	C471.035400,31.886417 468.880981,31.886417 465.809052,31.888420 
M319.813507,150.488907 
	C319.813507,142.728119 319.813507,134.967331 319.813507,127.094452 
	C316.167847,127.094452 313.071228,127.094452 309.954437,127.094452 
	C309.954437,139.481384 309.954437,151.656723 309.954437,163.692429 
	C313.397400,163.692429 316.475372,163.692429 319.813507,163.692429 
	C319.813507,159.411530 319.813507,155.447754 319.813507,150.488907 
M463.205536,23.267094 
	C463.937531,24.316942 464.651672,26.242319 465.404755,26.257677 
	C467.991882,26.310448 470.860718,26.211699 473.053925,25.074621 
	C473.910889,24.630322 473.986633,19.967710 473.156464,19.508778 
	C470.999115,18.316166 468.096222,17.934288 465.587585,18.187447 
	C464.624268,18.284660 463.923218,20.980930 463.205536,23.267094 
M317.741425,121.521729 
	C318.136353,121.224182 318.859985,120.940880 318.873596,120.626816 
	C318.972046,118.353485 319.819794,114.909470 318.720337,114.066612 
	C317.030151,112.770912 313.772858,112.598450 311.573120,113.258316 
	C310.387451,113.613976 308.920624,117.307594 309.533325,118.399948 
	C310.498322,120.120377 313.072693,120.985825 315.050995,122.055565 
	C315.526672,122.312798 316.337189,121.950729 317.741425,121.521729 
z"/>
<path fill="#FF5A5A" opacity="1.000000" stroke="none" 
	d="
M520.959045,176.036774 
	C522.294678,179.554077 523.991394,182.985138 524.858215,186.614410 
	C525.630066,189.846039 523.501038,191.125793 520.391724,190.699341 
	C519.417603,190.565735 518.477661,190.153381 517.503296,190.055847 
	C508.889160,189.193695 506.925232,187.008667 507.258331,178.328995 
	C507.353455,175.850433 507.729065,173.382660 508.043732,170.232498 
	C504.652893,172.179901 501.874176,174.258377 498.757080,175.456467 
	C493.676056,177.409424 488.462952,179.223419 483.144806,180.307449 
	C474.914978,181.985001 472.028778,179.558289 470.713013,171.184494 
	C470.476135,169.676758 469.905579,168.125473 469.117706,166.818069 
	C466.615265,162.665421 467.661835,159.613998 472.609833,159.044128 
	C477.458496,158.485687 482.421814,158.922531 486.848419,158.922531 
	C484.589569,157.337784 481.407837,155.283554 478.422668,152.975113 
	C471.669128,147.752563 470.954803,140.854935 471.480255,132.678665 
	C472.328552,119.479385 477.387726,107.961281 482.919830,96.419495 
	C483.629395,94.939125 483.950043,93.272346 484.838776,90.467766 
	C489.140320,106.062683 500.195282,116.558281 507.309326,129.405502 
	C512.414307,138.624603 514.120728,143.482040 511.357025,161.008102 
	C512.374329,160.708603 513.524902,160.727539 514.041138,160.164703 
	C522.996826,150.399918 535.083374,148.141495 547.275208,145.761871 
	C552.591736,144.724167 557.658630,142.407562 563.338623,140.749207 
	C563.838257,140.826675 564.177368,141.162689 564.177368,141.162689 
	C560.219604,147.619965 556.514343,154.251389 552.221069,160.477295 
	C549.011841,165.131241 545.256775,169.463409 541.363403,173.578033 
	C535.687439,179.576599 529.059814,179.552277 521.614380,175.470642 
	C520.831055,175.287170 520.585754,175.318237 520.340454,175.349274 
	C520.546692,175.578430 520.752869,175.807602 520.959045,176.036774 
z"/>
<path fill="#080808" opacity="1.000000" stroke="none" 
	d="
M60.976288,46.029541 
	C60.978317,41.872936 60.978317,38.210167 60.978317,34.547394 
	C60.707191,34.461338 60.436066,34.375278 60.164940,34.289223 
	C56.340103,45.777328 52.515266,57.265438 48.654896,68.860275 
	C45.581867,68.860275 42.605099,68.860275 39.207245,68.860275 
	C35.697563,57.617344 32.152134,46.259903 28.606705,34.902462 
	C28.225613,34.998219 27.844522,35.093979 27.463430,35.189735 
	C27.463430,46.293941 27.463430,57.398148 27.463430,68.757095 
	C24.813595,68.757095 22.047956,68.757095 18.970280,68.757095 
	C18.970280,52.760941 18.970280,36.721146 18.970280,20.492382 
	C23.488180,20.492382 27.779465,20.492382 32.628155,20.492382 
	C36.315228,32.275097 40.049198,44.207680 44.245583,57.617992 
	C48.034538,46.191700 51.636162,36.312405 54.509750,26.225702 
	C55.829441,21.593390 57.773945,19.495386 62.667137,20.240562 
	C65.074043,20.607107 67.582916,20.304125 70.348969,20.304125 
	C70.348969,36.645576 70.348969,52.551399 70.348969,68.736481 
	C67.387848,68.736481 64.469872,68.736481 60.974258,68.736481 
	C60.974258,61.396580 60.974258,53.959976 60.976288,46.029541 
z"/>
<path fill="#080808" opacity="1.000000" stroke="none" 
	d="
M431.740387,156.919189 
	C436.857452,158.245132 439.655914,161.231369 439.738129,166.185226 
	C439.822388,171.260910 437.579956,175.178619 432.947021,177.477219 
	C426.076508,180.885956 418.771881,180.912369 411.503601,179.509323 
	C407.084503,178.656281 403.403778,176.353745 402.881653,171.154480 
	C402.359344,165.953278 405.278564,163.168289 409.745514,161.508087 
	C405.980042,155.020447 406.057159,154.318420 410.953003,149.832550 
	C409.447845,147.787048 407.502106,145.940903 406.530914,143.676758 
	C403.314362,136.177841 407.198822,128.055588 415.355988,127.042046 
	C423.320068,126.052498 431.503326,126.826828 439.848724,126.826828 
	C439.848724,128.724899 439.848724,130.287659 439.848724,131.905106 
	C438.214417,132.449844 436.651184,132.970886 435.103821,133.486633 
	C437.125122,146.246078 432.606934,151.410126 419.349945,151.852615 
	C418.084259,151.894852 416.858704,153.140198 415.614532,153.826996 
	C416.878448,154.587112 418.077911,155.839005 419.418427,156.014694 
	C423.359344,156.531174 427.356232,156.620438 431.740387,156.919189 
M422.815216,173.514374 
	C424.961273,172.716278 427.458618,172.363190 429.168884,171.013062 
	C431.579132,169.110321 431.601196,165.880356 428.396606,165.311188 
	C423.936676,164.519043 419.192719,164.893051 414.636414,165.382751 
	C413.502869,165.504593 411.796783,168.027786 411.863281,169.372604 
	C411.927368,170.668381 413.732513,172.473724 415.151031,172.966766 
	C417.259644,173.699707 419.701233,173.474640 422.815216,173.514374 
M416.500671,134.181717 
	C416.277130,136.867447 415.518616,139.665436 416.049042,142.192932 
	C416.326569,143.515396 418.819000,145.111191 420.400787,145.214874 
	C421.993103,145.319229 424.920258,143.940277 425.112854,142.836288 
	C425.610229,139.984970 425.784729,136.451401 424.477478,134.077133 
	C423.000031,131.393753 419.681824,131.798264 416.500671,134.181717 
z"/>
<path fill="#0B0B0B" opacity="1.000000" stroke="none" 
	d="
M248.672607,153.016815 
	C248.386337,148.799026 247.781799,144.955795 248.097763,141.189804 
	C249.232498,127.665459 259.337128,122.790894 272.342133,129.787537 
	C272.342133,123.902313 272.342133,118.250862 272.342133,112.385300 
	C275.907013,112.385300 278.987000,112.385300 282.347168,112.385300 
	C282.347168,129.510345 282.347168,146.430588 282.347168,163.773010 
	C278.383331,164.055389 274.111755,165.581573 272.806793,159.555328 
	C261.871552,168.102585 252.832077,165.722733 248.672607,153.016815 
M259.613831,138.300415 
	C259.464233,142.840591 258.672455,147.497833 259.468536,151.865646 
	C259.805756,153.716156 263.312805,155.805908 265.675781,156.267059 
	C268.748260,156.866684 271.681000,155.060944 272.191040,151.528305 
	C272.683075,148.120209 273.218384,144.482468 272.502533,141.215607 
	C271.992401,138.887421 269.754883,135.773849 267.717743,135.256271 
	C265.471497,134.685562 262.573334,136.680908 259.613831,138.300415 
M272.456299,130.033066 
	C272.378296,130.256134 272.300323,130.479202 272.222321,130.702271 
	C272.433655,130.634811 272.645020,130.567352 272.456299,130.033066 
z"/>
<path fill="#050505" opacity="1.000000" stroke="none" 
	d="
M413.114166,63.936710 
	C413.114166,65.740181 413.114166,67.058479 413.114166,68.692261 
	C409.755096,68.692261 406.547821,68.692261 403.122375,68.692261 
	C403.122375,52.718987 403.122375,36.814579 403.122375,20.611595 
	C406.274628,20.611595 409.349426,20.611595 412.974365,20.611595 
	C412.974365,27.437620 412.974365,34.283886 412.974365,42.378830 
	C417.648071,36.455322 422.005981,31.877127 425.228058,26.604773 
	C429.091309,20.283091 434.254425,19.268904 441.371674,20.876272 
	C435.817657,27.990561 430.458771,34.854927 424.945496,41.917019 
	C430.461060,50.722462 435.962158,59.504864 441.914337,69.007385 
	C438.108582,69.007385 435.143646,69.278366 432.269318,68.885849 
	C430.956207,68.706535 429.449585,67.465004 428.669464,66.283493 
	C424.926270,60.614223 421.401398,54.800831 417.738312,48.941513 
	C414.080109,50.070499 412.637177,52.264404 413.060760,55.970676 
	C413.342316,58.434147 413.114166,60.955879 413.114166,63.936710 
z"/>
<path fill="#050505" opacity="1.000000" stroke="none" 
	d="
M499.071716,44.298660 
	C502.923218,31.024530 511.089539,27.780962 523.061584,35.039318 
	C523.061584,31.792820 523.061584,28.922724 523.061584,26.052628 
	C523.061584,23.264324 523.061584,20.476021 523.061584,17.433590 
	C526.546204,17.433590 529.609741,17.433590 532.738647,17.433590 
	C532.920044,18.007765 533.187561,18.460470 533.188110,18.913525 
	C533.209534,35.372375 533.206177,51.831253 533.206177,68.599670 
	C529.226624,69.037964 524.919495,70.881760 523.749512,64.754585 
	C521.179932,66.258942 518.965759,68.200562 516.405151,68.936531 
	C507.788666,71.413086 500.485291,66.221634 499.159332,56.634521 
	C498.618896,52.727165 499.037659,48.687141 499.071716,44.298660 
M513.231873,60.867611 
	C517.518555,61.966381 521.775635,61.737480 522.804199,56.732552 
	C523.643311,52.649746 523.480347,48.103836 522.562134,44.033878 
	C522.150391,42.208714 518.921631,40.124901 516.760071,39.856117 
	C514.841797,39.617577 511.928192,41.210617 510.686218,42.900734 
	C507.385162,47.392941 508.617493,56.069618 513.231873,60.867611 
z"/>
<path fill="#040404" opacity="1.000000" stroke="none" 
	d="
M202.883789,31.007820 
	C202.883789,26.222244 202.883789,21.934725 202.883789,17.418148 
	C206.381729,17.418148 209.444855,17.418148 212.747345,17.418148 
	C212.747345,23.542105 212.747345,29.481686 212.747345,35.102215 
	C216.291016,33.775429 219.722504,31.731245 223.349121,31.289707 
	C231.076752,30.348875 236.665573,35.313908 236.920151,43.045845 
	C237.198471,51.498798 236.983444,59.967991 236.983444,68.717163 
	C233.793503,68.717163 230.709793,68.717163 226.944412,68.717163 
	C226.944412,61.457977 227.115768,54.037758 226.891647,46.629501 
	C226.703033,40.394611 221.919479,37.088425 217.402359,40.314922 
	C215.211136,41.880070 213.766479,45.367645 213.264893,48.210892 
	C212.552353,52.249813 213.012848,56.497063 212.987839,60.655392 
	C212.972046,63.282146 212.984909,65.909073 212.984909,68.768005 
	C209.582230,68.768005 206.505753,68.768005 202.883789,68.768005 
	C202.883789,56.328800 202.883789,43.917339 202.883789,31.007820 
z"/>
<path fill="#050505" opacity="1.000000" stroke="none" 
	d="
M368.803833,126.130280 
	C377.948486,128.026474 380.788269,131.318527 380.911255,140.114334 
	C381.020172,147.903763 380.934113,155.695923 380.934113,163.745499 
	C377.553375,163.745499 374.475769,163.745499 370.809784,163.745499 
	C370.809784,157.346069 370.841125,150.926407 370.801453,144.507172 
	C370.757111,137.334274 368.944489,134.337112 364.727539,134.291565 
	C359.856201,134.238953 357.180359,137.535141 356.978668,144.402939 
	C356.793671,150.701813 356.939423,157.010406 356.939423,163.660370 
	C353.380157,163.660370 350.177185,163.660370 346.785706,163.660370 
	C346.785706,151.493546 346.785706,139.386612 346.785706,127.058533 
	C350.424347,127.233994 354.895752,124.680199 355.453888,130.081909 
	C359.883514,128.721451 364.136993,127.415070 368.803833,126.130280 
z"/>
<path fill="#080808" opacity="1.000000" stroke="none" 
	d="
M96.092888,49.149460 
	C96.746353,41.248005 99.410370,35.005341 107.049431,32.399330 
	C114.112007,29.989979 120.935944,30.651152 126.645126,35.907566 
	C132.660629,41.446007 133.911957,53.748386 129.504456,61.490196 
	C125.609306,68.332039 116.641907,71.394386 108.018257,68.827690 
	C100.423737,66.567299 96.329552,59.978024 96.092888,49.149460 
M106.374924,50.502094 
	C106.981834,55.025375 106.523109,60.249130 112.852478,61.254986 
	C118.252800,62.113190 121.099411,59.055546 121.700012,51.969936 
	C122.347343,44.332825 119.570427,39.164772 114.505959,39.481087 
	C112.321609,39.617516 109.584358,40.940460 108.296005,42.635014 
	C106.935570,44.424385 107.002144,47.298698 106.374924,50.502094 
z"/>
<path fill="#080808" opacity="1.000000" stroke="none" 
	d="
M206.148331,126.153877 
	C222.367264,127.310287 230.446304,142.896149 222.401611,156.649338 
	C216.282684,167.110275 198.908783,167.467133 192.230652,157.269058 
	C183.873199,144.506531 190.784515,128.584091 206.148331,126.153877 
M213.006912,153.413986 
	C213.347610,148.884995 214.125015,144.333191 213.890213,139.834244 
	C213.703918,136.264465 210.798355,134.390533 207.258255,134.385971 
	C203.554749,134.381180 200.755478,136.247360 200.144608,140.014145 
	C199.648300,143.074448 199.488678,146.313736 199.909164,149.373413 
	C200.898987,156.575607 206.476074,158.544647 213.006912,153.413986 
z"/>
<path fill="#070707" opacity="1.000000" stroke="none" 
	d="
M144.643036,163.669205 
	C131.606232,158.219193 126.366936,141.959259 132.664825,127.473412 
	C138.071686,115.037033 151.494247,111.361954 167.083115,118.347099 
	C166.112686,120.853722 165.130905,123.389656 163.984268,126.351418 
	C156.972672,123.811050 149.430801,120.051949 144.116989,127.940758 
	C139.356873,135.007568 139.151382,143.472321 143.379257,150.719849 
	C148.698029,159.837341 157.405823,155.074997 164.943985,153.970810 
	C166.036453,162.717285 165.603806,163.471542 157.387115,164.086136 
	C153.291061,164.392517 149.138397,163.942230 144.643036,163.669205 
z"/>
<path fill="#080808" opacity="1.000000" stroke="none" 
	d="
M292.410706,36.670181 
	C296.266266,41.651520 296.180786,47.063660 295.944061,52.950699 
	C287.930969,52.950699 280.189484,52.950699 272.401245,52.950699 
	C273.791138,62.400993 277.623688,63.569042 293.698853,59.654350 
	C293.698853,62.085743 293.698853,64.458542 293.698853,66.926414 
	C287.484467,70.062355 280.934540,70.396576 274.311279,68.732475 
	C267.317413,66.975243 262.822266,61.363647 262.077484,54.048622 
	C261.052185,43.978493 264.359192,36.163242 270.985962,32.995594 
	C278.169617,29.561743 286.145447,30.838909 292.410706,36.670181 
M278.800476,38.472355 
	C274.697632,39.234486 272.587494,41.531189 272.873840,45.968742 
	C277.358246,45.968742 281.602692,45.968742 286.020233,45.968742 
	C286.258209,41.216171 283.955109,38.898403 278.800476,38.472355 
z"/>
<path fill="#080808" opacity="1.000000" stroke="none" 
	d="
M560.917603,48.939587 
	C555.388672,40.512241 558.269714,33.603783 567.700195,31.748516 
	C574.092407,30.490971 580.385864,31.429316 585.629456,34.493961 
	C584.767578,36.569004 583.895569,38.668224 583.032898,40.745087 
	C579.184448,40.086876 575.515381,39.301239 571.804688,38.922703 
	C570.716125,38.811657 569.509705,39.856274 568.357300,40.371231 
	C569.075867,41.552914 569.515930,43.216152 570.566467,43.823715 
	C573.426819,45.477955 576.602722,46.574493 579.549011,48.094681 
	C585.087463,50.952248 586.955078,54.494236 585.968384,60.236584 
	C585.049683,65.582840 581.336487,68.453064 576.365723,68.907242 
	C570.524353,69.440987 564.596924,69.032272 558.378296,69.032272 
	C558.378296,65.052879 558.378296,62.454369 558.378296,59.623962 
	C561.924377,60.425522 565.513794,61.711281 569.156311,61.885307 
	C571.401611,61.992577 573.727905,60.403954 576.017822,59.576733 
	C574.429688,57.916008 573.071594,55.906654 571.201782,54.672596 
	C568.038940,52.585125 564.552429,50.987846 560.917603,48.939587 
z"/>
<path fill="#060606" opacity="1.000000" stroke="none" 
	d="
M160.225769,28.042187 
	C161.116119,23.143606 164.426758,23.782545 168.025955,24.139608 
	C168.145493,26.460405 168.269028,28.859093 168.417831,31.747967 
	C171.795197,31.747967 175.037750,31.747967 178.540192,31.747967 
	C178.540192,34.475151 178.540192,36.706383 178.540192,39.478912 
	C175.155838,39.478912 171.904129,39.478912 168.258408,39.478912 
	C168.258408,45.648560 168.180359,51.287979 168.288132,56.923851 
	C168.351227,60.224094 170.306061,61.696789 173.536026,61.437298 
	C175.178757,61.305321 176.809235,61.020969 178.763718,60.763557 
	C178.763718,63.113632 178.763718,65.360649 178.763718,68.415421 
	C175.545456,68.809586 172.139420,69.661438 168.765625,69.548698 
	C161.923569,69.320053 158.635544,65.943970 158.258118,58.740532 
	C157.936310,52.598873 158.191589,46.426975 158.191589,39.994125 
	C156.592056,39.660114 155.208817,39.371265 152.721603,38.851891 
	C153.564056,37.115166 154.094406,35.450653 155.079605,34.123875 
	C156.583557,32.098484 158.401840,30.306488 160.225769,28.042187 
z"/>
<path fill="#060606" opacity="1.000000" stroke="none" 
	d="
M320.599548,54.988453 
	C320.599579,47.176544 320.599579,39.862003 320.599579,32.219315 
	C323.214203,32.219315 325.589264,32.219315 328.218445,32.219315 
	C328.702576,33.908527 329.193390,35.621040 329.864441,37.962410 
	C333.979492,33.596607 338.042480,29.778250 344.715607,31.639990 
	C344.434875,34.693817 344.167725,37.599625 343.872620,40.809628 
	C342.540039,40.809628 341.406555,40.742111 340.283295,40.820782 
	C333.882904,41.269035 330.950409,44.234001 330.841888,50.590485 
	C330.740112,56.550560 330.820068,62.513741 330.820068,68.739754 
	C327.366302,68.739754 324.270508,68.739754 320.599548,68.739754 
	C320.599548,64.357689 320.599548,59.921757 320.599548,54.988453 
z"/>
<path fill="#070707" opacity="1.000000" stroke="none" 
	d="
M466.267822,31.887419 
	C468.880981,31.886417 471.035400,31.886417 473.501160,31.886417 
	C473.501160,44.174553 473.501160,56.235901 473.501160,68.656189 
	C470.397156,68.656189 467.191589,68.656189 463.599243,68.656189 
	C463.599243,57.187523 463.554810,45.733551 463.694366,34.281822 
	C463.704193,33.475548 465.072449,32.685833 466.267822,31.887419 
z"/>
<path fill="#070707" opacity="1.000000" stroke="none" 
	d="
M319.813507,150.986450 
	C319.813507,155.447754 319.813507,159.411530 319.813507,163.692429 
	C316.475372,163.692429 313.397400,163.692429 309.954437,163.692429 
	C309.954437,151.656723 309.954437,139.481384 309.954437,127.094452 
	C313.071228,127.094452 316.167847,127.094452 319.813507,127.094452 
	C319.813507,134.967331 319.813507,142.728119 319.813507,150.986450 
z"/>
<path fill="#0E0E0E" opacity="1.000000" stroke="none" 
	d="
M463.154114,22.880009 
	C463.923218,20.980930 464.624268,18.284660 465.587585,18.187447 
	C468.096222,17.934288 470.999115,18.316166 473.156464,19.508778 
	C473.986633,19.967710 473.910889,24.630322 473.053925,25.074621 
	C470.860718,26.211699 467.991882,26.310448 465.404755,26.257677 
	C464.651672,26.242319 463.937531,24.316942 463.154114,22.880009 
z"/>
<path fill="#0E0E0E" opacity="1.000000" stroke="none" 
	d="
M317.367584,121.697601 
	C316.337189,121.950729 315.526672,122.312798 315.050995,122.055565 
	C313.072693,120.985825 310.498322,120.120377 309.533325,118.399948 
	C308.920624,117.307594 310.387451,113.613976 311.573120,113.258316 
	C313.772858,112.598450 317.030151,112.770912 318.720337,114.066612 
	C319.819794,114.909470 318.972046,118.353485 318.873596,120.626816 
	C318.859985,120.940880 318.136353,121.224182 317.367584,121.697601 
z"/>
<path fill="#FF5A5A" opacity="1.000000" stroke="none" 
	d="
M563.683838,140.644684 
	C563.881531,140.603668 564.233643,140.744675 564.381592,141.024170 
	C564.177368,141.162689 563.838257,140.826675 563.683838,140.644684 
z"/>
<path fill="#FEFEFE" opacity="1.000000" stroke="none" 
	d="
M521.071228,175.937332 
	C520.752869,175.807602 520.546692,175.578430 520.340454,175.349274 
	C520.585754,175.318237 520.831055,175.287170 521.242920,175.448471 
	C521.409424,175.640839 521.183411,175.837906 521.071228,175.937332 
z"/>
<path fill="#F1F1F1" opacity="1.000000" stroke="none" 
	d="
M422.408173,173.585846 
	C419.701233,173.474640 417.259644,173.699707 415.151031,172.966766 
	C413.732513,172.473724 411.927368,170.668381 411.863281,169.372604 
	C411.796783,168.027786 413.502869,165.504593 414.636414,165.382751 
	C419.192719,164.893051 423.936676,164.519043 428.396606,165.311188 
	C431.601196,165.880356 431.579132,169.110321 429.168884,171.013062 
	C427.458618,172.363190 424.961273,172.716278 422.408173,173.585846 
z"/>
<path fill="#F1F1F1" opacity="1.000000" stroke="none" 
	d="
M416.777039,133.914520 
	C419.681824,131.798264 423.000031,131.393753 424.477478,134.077133 
	C425.784729,136.451401 425.610229,139.984970 425.112854,142.836288 
	C424.920258,143.940277 421.993103,145.319229 420.400787,145.214874 
	C418.819000,145.111191 416.326569,143.515396 416.049042,142.192932 
	C415.518616,139.665436 416.277130,136.867447 416.777039,133.914520 
z"/>
<path fill="#F7F7F7" opacity="1.000000" stroke="none" 
	d="
M259.786499,137.929443 
	C262.573334,136.680908 265.471497,134.685562 267.717743,135.256271 
	C269.754883,135.773849 271.992401,138.887421 272.502533,141.215607 
	C273.218384,144.482468 272.683075,148.120209 272.191040,151.528305 
	C271.681000,155.060944 268.748260,156.866684 265.675781,156.267059 
	C263.312805,155.805908 259.805756,153.716156 259.468536,151.865646 
	C258.672455,147.497833 259.464233,142.840591 259.786499,137.929443 
z"/>
<path fill="#FEFEFE" opacity="1.000000" stroke="none" 
	d="
M272.656311,130.266479 
	C272.645020,130.567352 272.433655,130.634811 272.222351,130.702271 
	C272.300323,130.479202 272.378296,130.256134 272.656311,130.266479 
z"/>
<path fill="#F8F8F8" opacity="1.000000" stroke="none" 
	d="
M512.894043,60.626526 
	C508.617493,56.069618 507.385162,47.392941 510.686218,42.900734 
	C511.928192,41.210617 514.841797,39.617577 516.760071,39.856117 
	C518.921631,40.124901 522.150391,42.208714 522.562134,44.033878 
	C523.480347,48.103836 523.643311,52.649746 522.804199,56.732552 
	C521.775635,61.737480 517.518555,61.966381 512.894043,60.626526 
z"/>
<path fill="#F8F8F8" opacity="1.000000" stroke="none" 
	d="
M106.410126,50.100574 
	C107.002144,47.298698 106.935570,44.424385 108.296005,42.635014 
	C109.584358,40.940460 112.321609,39.617516 114.505959,39.481087 
	C119.570427,39.164772 122.347343,44.332825 121.700012,51.969936 
	C121.099411,59.055546 118.252800,62.113190 112.852478,61.254986 
	C106.523109,60.249130 106.981834,55.025375 106.410126,50.100574 
z"/>
<path fill="#F8F8F8" opacity="1.000000" stroke="none" 
	d="
M212.768326,153.743759 
	C206.476074,158.544647 200.898987,156.575607 199.909164,149.373413 
	C199.488678,146.313736 199.648300,143.074448 200.144608,140.014145 
	C200.755478,136.247360 203.554749,134.381180 207.258255,134.385971 
	C210.798355,134.390533 213.703918,136.264465 213.890213,139.834244 
	C214.125015,144.333191 213.347610,148.884995 212.768326,153.743759 
z"/>
<path fill="#F8F8F8" opacity="1.000000" stroke="none" 
	d="
M279.176086,38.411362 
	C283.955109,38.898403 286.258209,41.216171 286.020233,45.968742 
	C281.602692,45.968742 277.358246,45.968742 272.873840,45.968742 
	C272.587494,41.531189 274.697632,39.234486 279.176086,38.411362 
z"/>
</svg>