<?xml version="1.0" encoding="UTF-8"?>
<svg xmlns="http://www.w3.org/2000/svg" xmlns:xlink="http://www.w3.org/1999/xlink" width="151px" height="51px" viewBox="0 0 152 51" version="1.1">
<g id="surface1">
<path style=" stroke:none;fill-rule:nonzero;fill:rgb(99.607843%,99.607843%,99.607843%);fill-opacity:1;" d="M 99.5 51.25 C 66.34375 51.25 33.3125 51.25 0.265625 51.25 C 0.265625 34.265625 0.265625 17.28125 0.265625 0.273438 C 50.886719 0.273438 101.519531 0.273438 152.203125 0.273438 C 152.203125 17.25 152.203125 34.25 152.203125 51.25 C 134.699219 51.25 117.160156 51.25 99.5 51.25 M 140.710938 35.167969 C 139.414062 35.601562 138.148438 36.179688 136.820312 36.441406 C 133.769531 37.035156 130.75 37.601562 128.511719 40.042969 C 128.382812 40.183594 128.09375 40.175781 127.839844 40.253906 C 128.53125 35.871094 128.105469 34.65625 126.828125 32.351562 C 125.046875 29.140625 122.285156 26.515625 121.210938 22.617188 C 120.988281 23.316406 120.90625 23.734375 120.730469 24.105469 C 119.347656 26.992188 118.082031 29.871094 117.871094 33.167969 C 117.738281 35.214844 117.917969 36.9375 119.605469 38.242188 C 120.351562 38.820312 121.148438 39.335938 121.710938 39.730469 C 120.605469 39.730469 119.363281 39.621094 118.152344 39.761719 C 116.914062 39.902344 116.652344 40.667969 117.28125 41.703125 C 117.476562 42.03125 117.617188 42.417969 117.679688 42.796875 C 118.007812 44.890625 118.730469 45.496094 120.785156 45.078125 C 122.117188 44.804688 123.417969 44.351562 124.6875 43.863281 C 125.46875 43.566406 126.164062 43.046875 127.011719 42.558594 C 126.933594 43.34375 126.839844 43.960938 126.816406 44.582031 C 126.730469 46.753906 127.222656 47.296875 129.375 47.515625 C 129.621094 47.539062 129.855469 47.640625 130.097656 47.675781 C 130.875 47.78125 131.40625 47.460938 131.214844 46.652344 C 130.996094 45.746094 130.574219 44.886719 130.296875 43.960938 C 130.296875 43.960938 130.351562 43.910156 130.539062 43.921875 C 132.265625 44.886719 133.921875 44.894531 135.339844 43.394531 C 136.3125 42.367188 137.253906 41.28125 138.054688 40.121094 C 139.128906 38.5625 140.054688 36.90625 141.144531 35.222656 C 141.058594 35.1875 140.96875 35.152344 140.710938 35.167969 M 15.242188 11.628906 C 15.242188 13.488281 15.242188 15.347656 15.242188 17.183594 C 16.117188 17.183594 16.847656 17.183594 17.585938 17.183594 C 17.585938 13.136719 17.585938 9.160156 17.585938 5.074219 C 16.894531 5.074219 16.269531 5.152344 15.667969 5.058594 C 14.445312 4.875 13.957031 5.398438 13.628906 6.554688 C 12.910156 9.078125 12.007812 11.546875 11.0625 14.40625 C 10.011719 11.050781 9.078125 8.070312 8.15625 5.125 C 6.945312 5.125 5.871094 5.125 4.742188 5.125 C 4.742188 9.179688 4.742188 13.191406 4.742188 17.1875 C 5.511719 17.1875 6.203125 17.1875 6.867188 17.1875 C 6.867188 14.347656 6.867188 11.574219 6.867188 8.796875 C 6.960938 8.773438 7.054688 8.75 7.152344 8.726562 C 8.039062 11.566406 8.925781 14.40625 9.800781 17.214844 C 10.652344 17.214844 11.394531 17.214844 12.164062 17.214844 C 13.128906 14.316406 14.085938 11.445312 15.042969 8.574219 C 15.109375 8.59375 15.175781 8.617188 15.246094 8.636719 C 15.246094 9.550781 15.246094 10.46875 15.242188 11.628906 M 107.832031 39.21875 C 106.839844 39.15625 105.839844 39.132812 104.855469 39.003906 C 104.519531 38.960938 104.21875 38.648438 103.902344 38.457031 C 104.214844 38.285156 104.519531 37.972656 104.835938 37.964844 C 108.152344 37.851562 109.28125 36.5625 108.777344 33.371094 C 109.164062 33.242188 109.554688 33.113281 109.960938 32.976562 C 109.960938 32.570312 109.960938 32.179688 109.960938 31.707031 C 107.875 31.707031 105.828125 31.511719 103.839844 31.761719 C 101.800781 32.015625 100.828125 34.042969 101.632812 35.917969 C 101.875 36.484375 102.363281 36.945312 102.738281 37.457031 C 101.515625 38.578125 101.496094 38.753906 102.4375 40.378906 C 101.320312 40.792969 100.589844 41.488281 100.71875 42.789062 C 100.851562 44.089844 101.769531 44.664062 102.875 44.878906 C 104.691406 45.226562 106.519531 45.222656 108.238281 44.371094 C 109.394531 43.792969 109.957031 42.816406 109.933594 41.546875 C 109.914062 40.308594 109.214844 39.5625 107.832031 39.21875 M 62.195312 38.355469 C 63.207031 41.429688 65.46875 42.027344 68.203125 39.890625 C 68.527344 41.394531 69.597656 41.015625 70.585938 40.941406 C 70.585938 36.609375 70.585938 32.378906 70.585938 28.097656 C 69.746094 28.097656 68.976562 28.097656 68.085938 28.097656 C 68.085938 29.5625 68.085938 30.976562 68.085938 32.445312 C 64.835938 30.699219 62.308594 31.917969 62.023438 35.296875 C 61.945312 36.238281 62.097656 37.199219 62.195312 38.355469 M 103.277344 15.863281 C 103.277344 15.238281 103.335938 14.609375 103.265625 13.992188 C 103.160156 13.066406 103.519531 12.519531 104.433594 12.234375 C 105.351562 13.699219 106.230469 15.152344 107.167969 16.570312 C 107.363281 16.867188 107.738281 17.175781 108.066406 17.222656 C 108.785156 17.320312 109.527344 17.25 110.480469 17.25 C 108.992188 14.875 107.617188 12.679688 106.238281 10.480469 C 107.613281 8.714844 108.953125 6.996094 110.34375 5.21875 C 108.5625 4.816406 107.273438 5.070312 106.308594 6.652344 C 105.5 7.96875 104.410156 9.113281 103.242188 10.59375 C 103.242188 8.570312 103.242188 6.859375 103.242188 5.152344 C 102.335938 5.152344 101.570312 5.152344 100.78125 5.152344 C 100.78125 9.203125 100.78125 13.179688 100.78125 17.171875 C 101.636719 17.171875 102.4375 17.171875 103.277344 17.171875 C 103.277344 16.765625 103.277344 16.433594 103.277344 15.863281 M 124.753906 11.175781 C 124.757812 12.171875 124.65625 13.183594 124.789062 14.160156 C 125.121094 16.554688 126.945312 17.851562 129.101562 17.234375 C 129.742188 17.050781 130.296875 16.566406 130.9375 16.1875 C 131.230469 17.71875 132.308594 17.257812 133.300781 17.148438 C 133.300781 12.957031 133.300781 8.84375 133.296875 4.726562 C 133.296875 4.613281 133.230469 4.5 133.183594 4.359375 C 132.402344 4.359375 131.636719 4.359375 130.765625 4.359375 C 130.765625 5.117188 130.765625 5.816406 130.765625 6.511719 C 130.765625 7.230469 130.765625 7.949219 130.765625 8.761719 C 127.773438 6.945312 125.730469 7.757812 124.753906 11.175781 M 50.722656 7.875 C 50.722656 10.980469 50.722656 14.082031 50.722656 17.191406 C 51.625 17.191406 52.394531 17.191406 53.246094 17.191406 C 53.246094 16.476562 53.242188 15.820312 53.246094 15.164062 C 53.253906 14.125 53.136719 13.0625 53.316406 12.050781 C 53.441406 11.34375 53.804688 10.46875 54.351562 10.078125 C 55.480469 9.273438 56.675781 10.097656 56.722656 11.65625 C 56.777344 13.507812 56.734375 15.363281 56.734375 17.179688 C 57.675781 17.179688 58.449219 17.179688 59.246094 17.179688 C 59.246094 14.992188 59.300781 12.875 59.230469 10.761719 C 59.167969 8.828125 57.769531 7.585938 55.835938 7.824219 C 54.929688 7.933594 54.074219 8.445312 53.1875 8.777344 C 53.1875 7.371094 53.1875 5.886719 53.1875 4.355469 C 52.359375 4.355469 51.59375 4.355469 50.722656 4.355469 C 50.722656 5.484375 50.722656 6.554688 50.722656 7.875 M 92.097656 31.527344 C 91.035156 31.855469 89.972656 32.179688 88.863281 32.519531 C 88.722656 31.171875 87.605469 31.808594 86.695312 31.765625 C 86.695312 34.847656 86.695312 37.875 86.695312 40.914062 C 87.542969 40.914062 88.34375 40.914062 89.234375 40.914062 C 89.234375 39.253906 89.199219 37.675781 89.246094 36.101562 C 89.296875 34.382812 89.964844 33.558594 91.183594 33.574219 C 92.234375 33.585938 92.6875 34.332031 92.699219 36.125 C 92.710938 37.730469 92.703125 39.335938 92.703125 40.9375 C 93.617188 40.9375 94.386719 40.9375 95.234375 40.9375 C 95.234375 38.925781 95.253906 36.976562 95.226562 35.027344 C 95.195312 32.828125 94.488281 32.007812 92.097656 31.527344 M 24.015625 12.398438 C 24.082031 14.996094 25.105469 16.640625 27.003906 17.207031 C 29.160156 17.847656 31.402344 17.082031 32.375 15.371094 C 33.476562 13.4375 33.164062 10.363281 31.660156 8.976562 C 30.234375 7.664062 28.527344 7.496094 26.761719 8.101562 C 24.851562 8.75 24.1875 10.3125 24.015625 12.398438 M 51.429688 31.546875 C 47.695312 32.144531 45.96875 36.125 48.058594 39.316406 C 49.726562 41.867188 54.070312 41.777344 55.601562 39.164062 C 57.613281 35.722656 55.59375 31.828125 51.429688 31.546875 M 36.253906 40.957031 C 37.285156 40.984375 38.324219 41.097656 39.347656 41.023438 C 41.402344 40.867188 41.507812 40.679688 41.234375 38.492188 C 39.351562 38.769531 37.175781 39.960938 35.84375 37.679688 C 34.789062 35.867188 34.839844 33.75 36.027344 31.984375 C 37.359375 30.011719 39.242188 30.953125 40.996094 31.585938 C 41.28125 30.847656 41.527344 30.214844 41.769531 29.585938 C 37.875 27.839844 34.519531 28.757812 33.167969 31.867188 C 31.589844 35.488281 32.902344 39.554688 36.253906 40.957031 M 73.042969 9.097656 C 71.535156 7.710938 69.542969 7.390625 67.746094 8.25 C 66.089844 9.039062 65.261719 10.996094 65.519531 13.511719 C 65.707031 15.339844 66.828125 16.742188 68.578125 17.183594 C 70.234375 17.597656 71.871094 17.515625 73.425781 16.730469 C 73.425781 16.113281 73.425781 15.519531 73.425781 14.914062 C 69.40625 15.890625 68.449219 15.601562 68.101562 13.238281 C 70.046875 13.238281 71.984375 13.238281 73.984375 13.238281 C 74.046875 11.765625 74.066406 10.414062 73.042969 9.097656 M 140.300781 12.296875 C 141.136719 12.746094 142.007812 13.144531 142.800781 13.667969 C 143.269531 13.976562 143.609375 14.480469 144.003906 14.894531 C 143.433594 15.101562 142.851562 15.5 142.289062 15.472656 C 141.378906 15.429688 140.480469 15.105469 139.59375 14.90625 C 139.59375 15.613281 139.59375 16.261719 139.59375 17.257812 C 141.148438 17.257812 142.632812 17.359375 144.089844 17.226562 C 145.335938 17.113281 146.261719 16.394531 146.492188 15.058594 C 146.738281 13.625 146.273438 12.738281 144.886719 12.023438 C 144.152344 11.644531 143.355469 11.371094 142.640625 10.957031 C 142.378906 10.804688 142.269531 10.386719 142.089844 10.09375 C 142.378906 9.964844 142.679688 9.703125 142.953125 9.730469 C 143.878906 9.824219 144.796875 10.023438 145.757812 10.1875 C 145.972656 9.667969 146.191406 9.140625 146.40625 8.625 C 145.097656 7.855469 143.523438 7.621094 141.925781 7.9375 C 139.566406 8.402344 138.847656 10.128906 140.300781 12.296875 M 40.023438 7.105469 C 39.601562 7.578125 39.144531 8.023438 38.769531 8.53125 C 38.523438 8.863281 38.390625 9.277344 38.179688 9.714844 C 38.800781 9.84375 39.148438 9.914062 39.546875 10 C 39.546875 11.605469 39.484375 13.148438 39.566406 14.683594 C 39.660156 16.484375 40.480469 17.328125 42.191406 17.386719 C 43.035156 17.414062 43.886719 17.203125 44.691406 17.105469 C 44.691406 16.339844 44.691406 15.777344 44.691406 15.191406 C 44.203125 15.253906 43.792969 15.328125 43.382812 15.359375 C 42.578125 15.425781 42.085938 15.054688 42.070312 14.230469 C 42.046875 12.820312 42.066406 11.414062 42.066406 9.871094 C 42.976562 9.871094 43.789062 9.871094 44.636719 9.871094 C 44.636719 9.175781 44.636719 8.617188 44.636719 7.9375 C 43.757812 7.9375 42.949219 7.9375 42.105469 7.9375 C 42.066406 7.214844 42.035156 6.613281 42.007812 6.035156 C 41.105469 5.945312 40.277344 5.785156 40.023438 7.105469 M 80.148438 13.871094 C 80.148438 14.980469 80.148438 16.089844 80.148438 17.183594 C 81.066406 17.183594 81.839844 17.183594 82.703125 17.183594 C 82.703125 15.628906 82.683594 14.136719 82.710938 12.648438 C 82.738281 11.058594 83.472656 10.316406 85.070312 10.207031 C 85.351562 10.183594 85.636719 10.203125 85.96875 10.203125 C 86.042969 9.398438 86.109375 8.671875 86.179688 7.910156 C 84.511719 7.445312 83.496094 8.398438 82.464844 9.492188 C 82.296875 8.90625 82.175781 8.476562 82.054688 8.054688 C 81.398438 8.054688 80.804688 8.054688 80.148438 8.054688 C 80.148438 9.964844 80.148438 11.792969 80.148438 13.871094 M 116.453125 7.972656 C 116.269531 8.171875 115.925781 8.367188 115.921875 8.570312 C 115.890625 11.433594 115.898438 14.296875 115.898438 17.164062 C 116.796875 17.164062 117.597656 17.164062 118.375 17.164062 C 118.375 14.058594 118.375 11.042969 118.375 7.972656 C 117.757812 7.972656 117.21875 7.972656 116.453125 7.972656 M 79.953125 37.621094 C 79.953125 35.683594 79.953125 33.742188 79.953125 31.773438 C 79.042969 31.773438 78.269531 31.773438 77.488281 31.773438 C 77.488281 34.871094 77.488281 37.914062 77.488281 40.921875 C 78.347656 40.921875 79.117188 40.921875 79.953125 40.921875 C 79.953125 39.851562 79.953125 38.863281 79.953125 37.621094 M 115.800781 5.816406 C 115.984375 6.078125 116.164062 6.5625 116.351562 6.5625 C 116.996094 6.578125 117.714844 6.554688 118.261719 6.269531 C 118.476562 6.15625 118.496094 4.992188 118.289062 4.878906 C 117.75 4.578125 117.023438 4.484375 116.398438 4.546875 C 116.15625 4.570312 115.980469 5.246094 115.800781 5.816406 M 79.433594 30.378906 C 79.535156 30.304688 79.714844 30.234375 79.71875 30.15625 C 79.742188 29.589844 79.953125 28.726562 79.679688 28.515625 C 79.257812 28.191406 78.441406 28.148438 77.894531 28.316406 C 77.597656 28.402344 77.230469 29.328125 77.382812 29.601562 C 77.625 30.03125 78.269531 30.246094 78.761719 30.515625 C 78.882812 30.578125 79.085938 30.488281 79.433594 30.378906 Z M 79.433594 30.378906 "/>
<path style=" stroke:none;fill-rule:nonzero;fill:rgb(100%,35.294118%,35.294118%);fill-opacity:1;" d="M 130.238281 44.007812 C 130.574219 44.886719 130.996094 45.746094 131.214844 46.652344 C 131.40625 47.460938 130.875 47.78125 130.097656 47.675781 C 129.855469 47.640625 129.621094 47.539062 129.375 47.515625 C 127.222656 47.296875 126.730469 46.753906 126.816406 44.582031 C 126.839844 43.960938 126.933594 43.34375 127.011719 42.558594 C 126.164062 43.046875 125.46875 43.566406 124.6875 43.863281 C 123.417969 44.351562 122.117188 44.804688 120.785156 45.078125 C 118.730469 45.496094 118.007812 44.890625 117.679688 42.796875 C 117.617188 42.417969 117.476562 42.03125 117.28125 41.703125 C 116.652344 40.667969 116.914062 39.902344 118.152344 39.761719 C 119.363281 39.621094 120.605469 39.730469 121.710938 39.730469 C 121.148438 39.335938 120.351562 38.820312 119.605469 38.242188 C 117.917969 36.9375 117.738281 35.214844 117.871094 33.167969 C 118.082031 29.871094 119.347656 26.992188 120.730469 24.105469 C 120.90625 23.734375 120.988281 23.316406 121.210938 22.617188 C 122.285156 26.515625 125.046875 29.140625 126.828125 32.351562 C 128.105469 34.65625 128.53125 35.871094 127.839844 40.253906 C 128.09375 40.175781 128.382812 40.183594 128.511719 40.042969 C 130.75 37.601562 133.769531 37.035156 136.820312 36.441406 C 138.148438 36.179688 139.414062 35.601562 140.835938 35.1875 C 140.960938 35.207031 141.042969 35.289062 141.042969 35.289062 C 140.054688 36.90625 139.128906 38.5625 138.054688 40.121094 C 137.253906 41.28125 136.3125 42.367188 135.339844 43.394531 C 133.921875 44.894531 132.265625 44.886719 130.402344 43.867188 C 130.207031 43.820312 130.144531 43.828125 130.085938 43.835938 C 130.136719 43.894531 130.1875 43.953125 130.238281 44.007812 Z M 130.238281 44.007812 "/>
<path style=" stroke:none;fill-rule:nonzero;fill:rgb(3.137255%,3.137255%,3.137255%);fill-opacity:1;" d="M 15.242188 11.507812 C 15.246094 10.46875 15.246094 9.550781 15.246094 8.636719 C 15.175781 8.617188 15.109375 8.59375 15.042969 8.574219 C 14.085938 11.445312 13.128906 14.316406 12.164062 17.214844 C 11.394531 17.214844 10.652344 17.214844 9.800781 17.214844 C 8.925781 14.40625 8.039062 11.566406 7.152344 8.726562 C 7.054688 8.75 6.960938 8.773438 6.867188 8.796875 C 6.867188 11.574219 6.867188 14.347656 6.867188 17.1875 C 6.203125 17.1875 5.511719 17.1875 4.742188 17.1875 C 4.742188 13.191406 4.742188 9.179688 4.742188 5.125 C 5.871094 5.125 6.945312 5.125 8.15625 5.125 C 9.078125 8.070312 10.011719 11.050781 11.0625 14.40625 C 12.007812 11.546875 12.910156 9.078125 13.628906 6.554688 C 13.957031 5.398438 14.445312 4.875 15.667969 5.058594 C 16.269531 5.152344 16.894531 5.074219 17.585938 5.074219 C 17.585938 9.160156 17.585938 13.136719 17.585938 17.183594 C 16.847656 17.183594 16.117188 17.183594 15.242188 17.183594 C 15.242188 15.347656 15.242188 13.488281 15.242188 11.507812 Z M 15.242188 11.507812 "/>
<path style=" stroke:none;fill-rule:nonzero;fill:rgb(3.137255%,3.137255%,3.137255%);fill-opacity:1;" d="M 107.933594 39.230469 C 109.214844 39.5625 109.914062 40.308594 109.933594 41.546875 C 109.957031 42.816406 109.394531 43.792969 108.238281 44.371094 C 106.519531 45.222656 104.691406 45.226562 102.875 44.878906 C 101.769531 44.664062 100.851562 44.089844 100.71875 42.789062 C 100.589844 41.488281 101.320312 40.792969 102.4375 40.378906 C 101.496094 38.753906 101.515625 38.578125 102.738281 37.457031 C 102.363281 36.945312 101.875 36.484375 101.632812 35.917969 C 100.828125 34.042969 101.800781 32.015625 103.839844 31.761719 C 105.828125 31.511719 107.875 31.707031 109.960938 31.707031 C 109.960938 32.179688 109.960938 32.570312 109.960938 32.976562 C 109.554688 33.113281 109.164062 33.242188 108.777344 33.371094 C 109.28125 36.5625 108.152344 37.851562 104.835938 37.964844 C 104.519531 37.972656 104.214844 38.285156 103.902344 38.457031 C 104.21875 38.648438 104.519531 38.960938 104.855469 39.003906 C 105.839844 39.132812 106.839844 39.15625 107.933594 39.230469 M 105.703125 43.378906 C 106.242188 43.179688 106.863281 43.089844 107.292969 42.753906 C 107.894531 42.277344 107.898438 41.46875 107.097656 41.328125 C 105.984375 41.128906 104.796875 41.222656 103.660156 41.34375 C 103.375 41.375 102.949219 42.007812 102.964844 42.34375 C 102.980469 42.667969 103.433594 43.117188 103.789062 43.242188 C 104.316406 43.425781 104.925781 43.367188 105.703125 43.378906 M 104.125 33.546875 C 104.070312 34.21875 103.878906 34.917969 104.011719 35.546875 C 104.082031 35.878906 104.703125 36.277344 105.101562 36.304688 C 105.5 36.328125 106.230469 35.984375 106.277344 35.710938 C 106.402344 34.996094 106.445312 34.113281 106.121094 33.519531 C 105.75 32.847656 104.921875 32.949219 104.125 33.546875 Z M 104.125 33.546875 "/>
<path style=" stroke:none;fill-rule:nonzero;fill:rgb(4.313725%,4.313725%,4.313725%);fill-opacity:1;" d="M 62.167969 38.253906 C 62.097656 37.199219 61.945312 36.238281 62.023438 35.296875 C 62.308594 31.917969 64.835938 30.699219 68.085938 32.445312 C 68.085938 30.976562 68.085938 29.5625 68.085938 28.097656 C 68.976562 28.097656 69.746094 28.097656 70.585938 28.097656 C 70.585938 32.378906 70.585938 36.609375 70.585938 40.941406 C 69.597656 41.015625 68.527344 41.394531 68.203125 39.890625 C 65.46875 42.027344 63.207031 41.429688 62.167969 38.253906 M 64.902344 34.574219 C 64.867188 35.710938 64.667969 36.875 64.867188 37.964844 C 64.953125 38.429688 65.828125 38.953125 66.417969 39.066406 C 67.1875 39.214844 67.921875 38.765625 68.046875 37.882812 C 68.171875 37.03125 68.304688 36.121094 68.125 35.304688 C 68 34.722656 67.4375 33.945312 66.929688 33.8125 C 66.367188 33.671875 65.644531 34.171875 64.902344 34.574219 M 68.113281 32.507812 C 68.09375 32.5625 68.074219 32.621094 68.054688 32.675781 C 68.109375 32.660156 68.160156 32.640625 68.113281 32.507812 Z M 68.113281 32.507812 "/>
<path style=" stroke:none;fill-rule:nonzero;fill:rgb(1.960784%,1.960784%,1.960784%);fill-opacity:1;" d="M 103.277344 15.984375 C 103.277344 16.433594 103.277344 16.765625 103.277344 17.171875 C 102.4375 17.171875 101.636719 17.171875 100.78125 17.171875 C 100.78125 13.179688 100.78125 9.203125 100.78125 5.152344 C 101.570312 5.152344 102.335938 5.152344 103.242188 5.152344 C 103.242188 6.859375 103.242188 8.570312 103.242188 10.59375 C 104.410156 9.113281 105.5 7.96875 106.308594 6.652344 C 107.273438 5.070312 108.5625 4.816406 110.34375 5.21875 C 108.953125 6.996094 107.613281 8.714844 106.238281 10.480469 C 107.617188 12.679688 108.992188 14.875 110.480469 17.25 C 109.527344 17.25 108.785156 17.320312 108.066406 17.222656 C 107.738281 17.175781 107.363281 16.867188 107.167969 16.570312 C 106.230469 15.152344 105.351562 13.699219 104.433594 12.234375 C 103.519531 12.519531 103.160156 13.066406 103.265625 13.992188 C 103.335938 14.609375 103.277344 15.238281 103.277344 15.984375 Z M 103.277344 15.984375 "/>
<path style=" stroke:none;fill-rule:nonzero;fill:rgb(1.960784%,1.960784%,1.960784%);fill-opacity:1;" d="M 124.769531 11.074219 C 125.730469 7.757812 127.773438 6.945312 130.765625 8.761719 C 130.765625 7.949219 130.765625 7.230469 130.765625 6.511719 C 130.765625 5.816406 130.765625 5.117188 130.765625 4.359375 C 131.636719 4.359375 132.402344 4.359375 133.183594 4.359375 C 133.230469 4.5 133.296875 4.613281 133.296875 4.726562 C 133.300781 8.84375 133.300781 12.957031 133.300781 17.148438 C 132.308594 17.257812 131.230469 17.71875 130.9375 16.1875 C 130.296875 16.566406 129.742188 17.050781 129.101562 17.234375 C 126.945312 17.851562 125.121094 16.554688 124.789062 14.160156 C 124.65625 13.183594 124.757812 12.171875 124.769531 11.074219 M 128.308594 15.21875 C 129.378906 15.492188 130.445312 15.433594 130.699219 14.183594 C 130.910156 13.164062 130.871094 12.027344 130.640625 11.007812 C 130.539062 10.550781 129.730469 10.03125 129.191406 9.964844 C 128.710938 9.90625 127.980469 10.300781 127.671875 10.726562 C 126.847656 11.847656 127.15625 14.015625 128.308594 15.21875 Z M 128.308594 15.21875 "/>
<path style=" stroke:none;fill-rule:nonzero;fill:rgb(1.568627%,1.568627%,1.568627%);fill-opacity:1;" d="M 50.722656 7.753906 C 50.722656 6.554688 50.722656 5.484375 50.722656 4.355469 C 51.59375 4.355469 52.359375 4.355469 53.1875 4.355469 C 53.1875 5.886719 53.1875 7.371094 53.1875 8.777344 C 54.074219 8.445312 54.929688 7.933594 55.835938 7.824219 C 57.769531 7.585938 59.167969 8.828125 59.230469 10.761719 C 59.300781 12.875 59.246094 14.992188 59.246094 17.179688 C 58.449219 17.179688 57.675781 17.179688 56.734375 17.179688 C 56.734375 15.363281 56.777344 13.507812 56.722656 11.65625 C 56.675781 10.097656 55.480469 9.273438 54.351562 10.078125 C 53.804688 10.46875 53.441406 11.34375 53.316406 12.050781 C 53.136719 13.0625 53.253906 14.125 53.246094 15.164062 C 53.242188 15.820312 53.246094 16.476562 53.246094 17.191406 C 52.394531 17.191406 51.625 17.191406 50.722656 17.191406 C 50.722656 14.082031 50.722656 10.980469 50.722656 7.753906 Z M 50.722656 7.753906 "/>
<path style=" stroke:none;fill-rule:nonzero;fill:rgb(1.960784%,1.960784%,1.960784%);fill-opacity:1;" d="M 92.199219 31.53125 C 94.488281 32.007812 95.195312 32.828125 95.226562 35.027344 C 95.253906 36.976562 95.234375 38.925781 95.234375 40.9375 C 94.386719 40.9375 93.617188 40.9375 92.703125 40.9375 C 92.703125 39.335938 92.710938 37.730469 92.699219 36.125 C 92.6875 34.332031 92.234375 33.585938 91.183594 33.574219 C 89.964844 33.558594 89.296875 34.382812 89.246094 36.101562 C 89.199219 37.675781 89.234375 39.253906 89.234375 40.914062 C 88.34375 40.914062 87.542969 40.914062 86.695312 40.914062 C 86.695312 37.875 86.695312 34.847656 86.695312 31.765625 C 87.605469 31.808594 88.722656 31.171875 88.863281 32.519531 C 89.972656 32.179688 91.035156 31.855469 92.199219 31.53125 Z M 92.199219 31.53125 "/>
<path style=" stroke:none;fill-rule:nonzero;fill:rgb(3.137255%,3.137255%,3.137255%);fill-opacity:1;" d="M 24.023438 12.289062 C 24.1875 10.3125 24.851562 8.75 26.761719 8.101562 C 28.527344 7.496094 30.234375 7.664062 31.660156 8.976562 C 33.164062 10.363281 33.476562 13.4375 32.375 15.371094 C 31.402344 17.082031 29.160156 17.847656 27.003906 17.207031 C 25.105469 16.640625 24.082031 14.996094 24.023438 12.289062 M 26.59375 12.625 C 26.746094 13.757812 26.628906 15.0625 28.214844 15.3125 C 29.5625 15.527344 30.273438 14.765625 30.425781 12.992188 C 30.585938 11.082031 29.894531 9.792969 28.625 9.871094 C 28.082031 9.90625 27.394531 10.234375 27.074219 10.660156 C 26.734375 11.105469 26.75 11.824219 26.59375 12.625 Z M 26.59375 12.625 "/>
<path style=" stroke:none;fill-rule:nonzero;fill:rgb(3.137255%,3.137255%,3.137255%);fill-opacity:1;" d="M 51.535156 31.539062 C 55.59375 31.828125 57.613281 35.722656 55.601562 39.164062 C 54.070312 41.777344 49.726562 41.867188 48.058594 39.316406 C 45.96875 36.125 47.695312 32.144531 51.535156 31.539062 M 53.25 38.351562 C 53.335938 37.222656 53.53125 36.082031 53.472656 34.957031 C 53.425781 34.066406 52.699219 33.597656 51.816406 33.597656 C 50.890625 33.59375 50.1875 34.0625 50.035156 35.003906 C 49.910156 35.769531 49.871094 36.578125 49.976562 37.34375 C 50.226562 39.144531 51.617188 39.636719 53.25 38.351562 Z M 53.25 38.351562 "/>
<path style=" stroke:none;fill-rule:nonzero;fill:rgb(2.745098%,2.745098%,2.745098%);fill-opacity:1;" d="M 36.160156 40.917969 C 32.902344 39.554688 31.589844 35.488281 33.167969 31.867188 C 34.519531 28.757812 37.875 27.839844 41.769531 29.585938 C 41.527344 30.214844 41.28125 30.847656 40.996094 31.585938 C 39.242188 30.953125 37.359375 30.011719 36.027344 31.984375 C 34.839844 33.75 34.789062 35.867188 35.84375 37.679688 C 37.175781 39.960938 39.351562 38.769531 41.234375 38.492188 C 41.507812 40.679688 41.402344 40.867188 39.347656 41.023438 C 38.324219 41.097656 37.285156 40.984375 36.160156 40.917969 Z M 36.160156 40.917969 "/>
<path style=" stroke:none;fill-rule:nonzero;fill:rgb(3.137255%,3.137255%,3.137255%);fill-opacity:1;" d="M 73.101562 9.167969 C 74.066406 10.414062 74.046875 11.765625 73.984375 13.238281 C 71.984375 13.238281 70.046875 13.238281 68.101562 13.238281 C 68.449219 15.601562 69.40625 15.890625 73.425781 14.914062 C 73.425781 15.519531 73.425781 16.113281 73.425781 16.730469 C 71.871094 17.515625 70.234375 17.597656 68.578125 17.183594 C 66.828125 16.742188 65.707031 15.339844 65.519531 13.511719 C 65.261719 10.996094 66.089844 9.039062 67.746094 8.25 C 69.542969 7.390625 71.535156 7.710938 73.101562 9.167969 M 69.699219 9.617188 C 68.675781 9.808594 68.148438 10.382812 68.21875 11.492188 C 69.339844 11.492188 70.402344 11.492188 71.503906 11.492188 C 71.566406 10.304688 70.988281 9.722656 69.699219 9.617188 Z M 69.699219 9.617188 "/>
<path style=" stroke:none;fill-rule:nonzero;fill:rgb(3.137255%,3.137255%,3.137255%);fill-opacity:1;" d="M 140.230469 12.234375 C 138.847656 10.128906 139.566406 8.402344 141.925781 7.9375 C 143.523438 7.621094 145.097656 7.855469 146.40625 8.625 C 146.191406 9.140625 145.972656 9.667969 145.757812 10.1875 C 144.796875 10.023438 143.878906 9.824219 142.953125 9.730469 C 142.679688 9.703125 142.378906 9.964844 142.089844 10.09375 C 142.269531 10.386719 142.378906 10.804688 142.640625 10.957031 C 143.355469 11.371094 144.152344 11.644531 144.886719 12.023438 C 146.273438 12.738281 146.738281 13.625 146.492188 15.058594 C 146.261719 16.394531 145.335938 17.113281 144.089844 17.226562 C 142.632812 17.359375 141.148438 17.257812 139.59375 17.257812 C 139.59375 16.261719 139.59375 15.613281 139.59375 14.90625 C 140.480469 15.105469 141.378906 15.429688 142.289062 15.472656 C 142.851562 15.5 143.433594 15.101562 144.003906 14.894531 C 143.609375 14.480469 143.269531 13.976562 142.800781 13.667969 C 142.007812 13.144531 141.136719 12.746094 140.230469 12.234375 Z M 140.230469 12.234375 "/>
<path style=" stroke:none;fill-rule:nonzero;fill:rgb(2.352941%,2.352941%,2.352941%);fill-opacity:1;" d="M 40.054688 7.011719 C 40.277344 5.785156 41.105469 5.945312 42.007812 6.035156 C 42.035156 6.613281 42.066406 7.214844 42.105469 7.9375 C 42.949219 7.9375 43.757812 7.9375 44.636719 7.9375 C 44.636719 8.617188 44.636719 9.175781 44.636719 9.871094 C 43.789062 9.871094 42.976562 9.871094 42.066406 9.871094 C 42.066406 11.414062 42.046875 12.820312 42.070312 14.230469 C 42.085938 15.054688 42.578125 15.425781 43.382812 15.359375 C 43.792969 15.328125 44.203125 15.253906 44.691406 15.191406 C 44.691406 15.777344 44.691406 16.339844 44.691406 17.105469 C 43.886719 17.203125 43.035156 17.414062 42.191406 17.386719 C 40.480469 17.328125 39.660156 16.484375 39.566406 14.683594 C 39.484375 13.148438 39.546875 11.605469 39.546875 10 C 39.148438 9.914062 38.800781 9.84375 38.179688 9.714844 C 38.390625 9.277344 38.523438 8.863281 38.769531 8.53125 C 39.144531 8.023438 39.601562 7.578125 40.054688 7.011719 Z M 40.054688 7.011719 "/>
<path style=" stroke:none;fill-rule:nonzero;fill:rgb(2.352941%,2.352941%,2.352941%);fill-opacity:1;" d="M 80.148438 13.746094 C 80.148438 11.792969 80.148438 9.964844 80.148438 8.054688 C 80.804688 8.054688 81.398438 8.054688 82.054688 8.054688 C 82.175781 8.476562 82.296875 8.90625 82.464844 9.492188 C 83.496094 8.398438 84.511719 7.445312 86.179688 7.910156 C 86.109375 8.671875 86.042969 9.398438 85.96875 10.203125 C 85.636719 10.203125 85.351562 10.183594 85.070312 10.207031 C 83.472656 10.316406 82.738281 11.058594 82.710938 12.648438 C 82.683594 14.136719 82.703125 15.628906 82.703125 17.183594 C 81.839844 17.183594 81.066406 17.183594 80.148438 17.183594 C 80.148438 16.089844 80.148438 14.980469 80.148438 13.746094 Z M 80.148438 13.746094 "/>
<path style=" stroke:none;fill-rule:nonzero;fill:rgb(2.745098%,2.745098%,2.745098%);fill-opacity:1;" d="M 116.566406 7.972656 C 117.21875 7.972656 117.757812 7.972656 118.375 7.972656 C 118.375 11.042969 118.375 14.058594 118.375 17.164062 C 117.597656 17.164062 116.796875 17.164062 115.898438 17.164062 C 115.898438 14.296875 115.890625 11.433594 115.921875 8.570312 C 115.925781 8.367188 116.269531 8.171875 116.566406 7.972656 Z M 116.566406 7.972656 "/>
<path style=" stroke:none;fill-rule:nonzero;fill:rgb(2.745098%,2.745098%,2.745098%);fill-opacity:1;" d="M 79.953125 37.746094 C 79.953125 38.863281 79.953125 39.851562 79.953125 40.921875 C 79.117188 40.921875 78.347656 40.921875 77.488281 40.921875 C 77.488281 37.914062 77.488281 34.871094 77.488281 31.773438 C 78.269531 31.773438 79.042969 31.773438 79.953125 31.773438 C 79.953125 33.742188 79.953125 35.683594 79.953125 37.746094 Z M 79.953125 37.746094 "/>
<path style=" stroke:none;fill-rule:nonzero;fill:rgb(5.490196%,5.490196%,5.490196%);fill-opacity:1;" d="M 115.789062 5.71875 C 115.980469 5.246094 116.15625 4.570312 116.398438 4.546875 C 117.023438 4.484375 117.75 4.578125 118.289062 4.878906 C 118.496094 4.992188 118.476562 6.15625 118.261719 6.269531 C 117.714844 6.554688 116.996094 6.578125 116.351562 6.5625 C 116.164062 6.5625 115.984375 6.078125 115.789062 5.71875 Z M 115.789062 5.71875 "/>
<path style=" stroke:none;fill-rule:nonzero;fill:rgb(5.490196%,5.490196%,5.490196%);fill-opacity:1;" d="M 79.34375 30.425781 C 79.085938 30.488281 78.882812 30.578125 78.761719 30.515625 C 78.269531 30.246094 77.625 30.03125 77.382812 29.601562 C 77.230469 29.328125 77.597656 28.402344 77.894531 28.316406 C 78.441406 28.148438 79.257812 28.191406 79.679688 28.515625 C 79.953125 28.726562 79.742188 29.589844 79.71875 30.15625 C 79.714844 30.234375 79.535156 30.304688 79.34375 30.425781 Z M 79.34375 30.425781 "/>
<path style=" stroke:none;fill-rule:nonzero;fill:rgb(100%,35.294118%,35.294118%);fill-opacity:1;" d="M 140.921875 35.160156 C 140.96875 35.152344 141.058594 35.1875 141.09375 35.257812 C 141.042969 35.289062 140.960938 35.207031 140.921875 35.160156 Z M 140.921875 35.160156 "/>
<path style=" stroke:none;fill-rule:nonzero;fill:rgb(99.607843%,99.607843%,99.607843%);fill-opacity:1;" d="M 130.269531 43.984375 C 130.1875 43.953125 130.136719 43.894531 130.085938 43.835938 C 130.144531 43.828125 130.207031 43.820312 130.3125 43.863281 C 130.351562 43.910156 130.296875 43.960938 130.269531 43.984375 Z M 130.269531 43.984375 "/>
<path style=" stroke:none;fill-rule:nonzero;fill:rgb(94.509804%,94.509804%,94.509804%);fill-opacity:1;" d="M 105.601562 43.394531 C 104.925781 43.367188 104.316406 43.425781 103.789062 43.242188 C 103.433594 43.117188 102.980469 42.667969 102.964844 42.34375 C 102.949219 42.007812 103.375 41.375 103.660156 41.34375 C 104.796875 41.222656 105.984375 41.128906 107.097656 41.328125 C 107.898438 41.46875 107.894531 42.277344 107.292969 42.753906 C 106.863281 43.089844 106.242188 43.179688 105.601562 43.394531 Z M 105.601562 43.394531 "/>
<path style=" stroke:none;fill-rule:nonzero;fill:rgb(94.509804%,94.509804%,94.509804%);fill-opacity:1;" d="M 104.195312 33.480469 C 104.921875 32.949219 105.75 32.847656 106.121094 33.519531 C 106.445312 34.113281 106.402344 34.996094 106.277344 35.710938 C 106.230469 35.984375 105.5 36.328125 105.101562 36.304688 C 104.703125 36.277344 104.082031 35.878906 104.011719 35.546875 C 103.878906 34.917969 104.070312 34.21875 104.195312 33.480469 Z M 104.195312 33.480469 "/>
<path style=" stroke:none;fill-rule:nonzero;fill:rgb(96.862745%,96.862745%,96.862745%);fill-opacity:1;" d="M 64.945312 34.480469 C 65.644531 34.171875 66.367188 33.671875 66.929688 33.8125 C 67.4375 33.945312 68 34.722656 68.125 35.304688 C 68.304688 36.121094 68.171875 37.03125 68.046875 37.882812 C 67.921875 38.765625 67.1875 39.214844 66.417969 39.066406 C 65.828125 38.953125 64.953125 38.429688 64.867188 37.964844 C 64.667969 36.875 64.867188 35.710938 64.945312 34.480469 Z M 64.945312 34.480469 "/>
<path style=" stroke:none;fill-rule:nonzero;fill:rgb(99.607843%,99.607843%,99.607843%);fill-opacity:1;" d="M 68.164062 32.566406 C 68.160156 32.640625 68.109375 32.660156 68.054688 32.675781 C 68.074219 32.621094 68.09375 32.5625 68.164062 32.566406 Z M 68.164062 32.566406 "/>
<path style=" stroke:none;fill-rule:nonzero;fill:rgb(97.254902%,97.254902%,97.254902%);fill-opacity:1;" d="M 128.222656 15.15625 C 127.15625 14.015625 126.847656 11.847656 127.671875 10.726562 C 127.980469 10.300781 128.710938 9.90625 129.191406 9.964844 C 129.730469 10.03125 130.539062 10.550781 130.640625 11.007812 C 130.871094 12.027344 130.910156 13.164062 130.699219 14.183594 C 130.445312 15.433594 129.378906 15.492188 128.222656 15.15625 Z M 128.222656 15.15625 "/>
<path style=" stroke:none;fill-rule:nonzero;fill:rgb(97.254902%,97.254902%,97.254902%);fill-opacity:1;" d="M 26.601562 12.523438 C 26.75 11.824219 26.734375 11.105469 27.074219 10.660156 C 27.394531 10.234375 28.082031 9.90625 28.625 9.871094 C 29.894531 9.792969 30.585938 11.082031 30.425781 12.992188 C 30.273438 14.765625 29.5625 15.527344 28.214844 15.3125 C 26.628906 15.0625 26.746094 13.757812 26.601562 12.523438 Z M 26.601562 12.523438 "/>
<path style=" stroke:none;fill-rule:nonzero;fill:rgb(97.254902%,97.254902%,97.254902%);fill-opacity:1;" d="M 53.191406 38.4375 C 51.617188 39.636719 50.226562 39.144531 49.976562 37.34375 C 49.871094 36.578125 49.910156 35.769531 50.035156 35.003906 C 50.1875 34.0625 50.890625 33.59375 51.816406 33.597656 C 52.699219 33.597656 53.425781 34.066406 53.472656 34.957031 C 53.53125 36.082031 53.335938 37.222656 53.191406 38.4375 Z M 53.191406 38.4375 "/>
<path style=" stroke:none;fill-rule:nonzero;fill:rgb(97.254902%,97.254902%,97.254902%);fill-opacity:1;" d="M 69.792969 9.601562 C 70.988281 9.722656 71.566406 10.304688 71.503906 11.492188 C 70.402344 11.492188 69.339844 11.492188 68.21875 11.492188 C 68.148438 10.382812 68.675781 9.808594 69.792969 9.601562 Z M 69.792969 9.601562 "/>
</g>
</svg>
